<?xml version="1.0" encoding="utf-8"?>
<!-- Generator: Adobe Illustrator 16.0.0, SVG Export Plug-In . SVG Version: 6.00 Build 0)  -->
<!DOCTYPE svg PUBLIC "-//W3C//DTD SVG 1.1//EN" "http://www.w3.org/Graphics/SVG/1.1/DTD/svg11.dtd">
<svg version="1.1" id="Layer_1" xmlns="http://www.w3.org/2000/svg" xmlns:xlink="http://www.w3.org/1999/xlink" x="0px" y="0px"
	 width="100px" height="100px" viewBox="0 0 100 100" enable-background="new 0 0 100 100" xml:space="preserve">
<path fill="#1D3360" d="M50,98.911C22.385,98.911-0.082,76.971-0.082,50C-0.082,23.03,22.385,1.089,50,1.089
	S100.082,23.03,100.082,50C100.082,76.971,77.615,98.911,50,98.911z M50,4.613C24.328,4.613,3.442,24.974,3.442,50
	c0,25.025,20.886,45.389,46.558,45.389S96.559,75.025,96.559,50C96.559,24.974,75.672,4.613,50,4.613z"/>
<g>
	<g>
		<path fill="#1D3360" d="M23.871,45.016c-0.177-0.528-0.294-0.852-0.294-2.528v-3.234c0-1.91-0.648-2.617-2.119-2.617h-1.116v8.379
			H17.11V24.437h4.879c3.352,0,4.79,1.557,4.79,4.732v1.618c0,2.116-0.675,3.499-2.115,4.173c1.618,0.677,2.146,2.233,2.146,4.381
			v3.175c0,1,0.03,1.734,0.354,2.498L23.871,45.016L23.871,45.016z M20.343,27.376v6.322h1.264c1.206,0,1.941-0.53,1.941-2.176
			v-2.029c0-1.47-0.501-2.117-1.647-2.117H20.343z"/>
		<path fill="#1D3360" d="M32.16,33.109h4.438v2.939H32.16v6.028h5.585v2.939h-8.82V24.437h8.82v2.939H32.16V33.109z"/>
		<path fill="#1D3360" d="M44.62,41.224l2.47-16.788h2.967l-3.172,20.579h-4.823l-3.174-20.579h3.262L44.62,41.224z"/>
		<path fill="#1D3360" d="M51.555,24.437h3.236v20.579h-3.236V24.437z"/>
		<path fill="#1D3360" d="M60.374,33.109h4.438v2.939h-4.438v6.028h5.585v2.939H57.14V24.437h8.819v2.939h-5.585V33.109z"/>
		<path fill="#1D3360" d="M75.128,34.05l-1.173,10.966h-4.441L67.22,24.437h3.146l1.734,16.228l1.558-16.228h3.116l1.618,16.346
			l1.675-16.346h2.824L80.6,45.016h-4.295L75.128,34.05z"/>
	</g>
	<g>
		<path fill="#1D3360" d="M28.483,66.089v3.275c0,3.943-1.972,6.199-5.776,6.199s-5.776-2.256-5.776-6.199V56.54
			c0-3.942,1.971-6.198,5.776-6.198s5.776,2.256,5.776,6.198v2.395h-3.662v-2.64c0-1.761-0.776-2.431-2.008-2.431
			c-1.233,0-2.008,0.67-2.008,2.431v13.313c0,1.762,0.774,2.397,2.008,2.397c1.232,0,2.008-0.636,2.008-2.397v-3.52H28.483z"/>
		<path fill="#1D3360" d="M30.524,56.54c0-3.942,2.078-6.198,5.884-6.198c3.804,0,5.881,2.256,5.881,6.198v12.822
			c0,3.945-2.079,6.2-5.881,6.2c-3.807,0-5.884-2.255-5.884-6.2V56.54z M34.398,69.608c0,1.762,0.774,2.433,2.01,2.433
			c1.231,0,2.007-0.671,2.007-2.433V56.297c0-1.762-0.776-2.431-2.007-2.431c-1.236,0-2.01,0.669-2.01,2.431V69.608z"/>
		<path fill="#1D3360" d="M44.785,50.626h6.131c3.875,0,5.776,2.146,5.776,6.09v12.471c0,3.945-1.901,6.096-5.776,6.096h-6.131
			V50.626z M48.663,54.146V71.76h2.183c1.231,0,1.972-0.635,1.972-2.396V56.54c0-1.761-0.74-2.395-1.972-2.395H48.663z"/>
		<path fill="#1D3360" d="M63.029,61.015h5.32v3.524h-5.32v7.221h6.692v3.522H59.153V50.626h10.568v3.52h-6.692V61.015z"/>
		<path fill="#1D3360" d="M77.325,50.342c3.771,0,5.707,2.256,5.707,6.198v0.775H79.37v-1.021c0-1.761-0.705-2.431-1.937-2.431
			c-1.234,0-1.939,0.67-1.939,2.431c0,5.069,7.574,6.021,7.574,13.067c0,3.945-1.973,6.2-5.778,6.2c-3.802,0-5.778-2.255-5.778-6.2
			v-1.515h3.667v1.761c0,1.762,0.771,2.397,2.004,2.397c1.234,0,2.008-0.636,2.008-2.397c0-5.072-7.573-6.022-7.573-13.068
			C71.617,52.598,73.557,50.342,77.325,50.342z"/>
	</g>
</g>
<g id="Misc" display="none">
</g>
</svg>
